# xmcd
#
# Track frame offsets: 
#        150
#        10380
#        25700
#        49259
#        68261
#        82320
#        98017
#        118294
#        132308
#        142915
#        157538
#        171544
#        186849
#        197838
#        210104
#        225910
#        240251
#        253630
#        269852
#        284138
#        296882
#        311732
#        328157
#
# Disc length: 4549 seconds
#
# Revision: 0
# Processed by: cddbd v1.5.2PL0 Copyright (c) Steve Scherf et al.
# Submitted via: ExactAudioCopy v1.3
#
DISCID=5211c317
DTITLE=Kris Kristofferson - The Very Best Of
DYEAR=1999
DGENRE=Country
TTITLE0=Help Me Make It Through The Night
TTITLE1=For The Good Times
TTITLE2=Loving Her Was Easier
TTITLE3=Me And Bobby McGee
TTITLE4=Nobody Wins
TTITLE5=Why Me Lord
TTITLE6=Sunday Morning Comin' Down
TTITLE7=Jodie and The Kid
TTITLE8=Please Dont Tell Me
TTITLE9=The Taker
TTITLE10=Stranger
TTITLE11=Help Me
TTITLE12=Put It Off Until Tomorrow
TTITLE13=Breakdown (A Long Way From Home)
TTITLE14=Hello In There
TTITLE15=The Pilgrim
TTITLE16=From The Bottle To The Bottom
TTITLE17=Somebody Nobody Knows
TTITLE18=I'd Rather Be Sorry
TTITLE19=Once More With feeling
TTITLE20=We Must Have Been Out Of Our Minds
TTITLE21=Come Sundown
TTITLE22=Kiss The World Goodbye
EXTD=
EXTT0=
EXTT1=
EXTT2=
EXTT3=
EXTT4=
EXTT5=
EXTT6=
EXTT7=
EXTT8=
EXTT9=
EXTT10=
EXTT11=
EXTT12=
EXTT13=
EXTT14=
EXTT15=
EXTT16=
EXTT17=
EXTT18=
EXTT19=
EXTT20=
EXTT21=
EXTT22=
PLAYORDER=
